<?xml version="1.0" standalone="no"?>
<!DOCTYPE svg PUBLIC "-//W3C//DTD SVG 20010904//EN"
 "http://www.w3.org/TR/2001/REC-SVG-20010904/DTD/svg10.dtd">
<svg version="1.0" xmlns="http://www.w3.org/2000/svg"
 width="2048.000000pt" height="2048.000000pt" viewBox="0 0 2048.000000 2048.000000"
 preserveAspectRatio="xMidYMid meet">

<g transform="translate(0.000000,2048.000000) scale(0.100000,-0.100000)"
fill="#000000" stroke="none">
<path d="M0 10240 l0 -10240 10240 0 10240 0 0 10240 0 10240 -10240 0 -10240
0 0 -10240z m10459 7733 c91 -53 218 -126 281 -163 172 -100 250 -145 300
-172 25 -14 277 -159 560 -323 283 -164 540 -313 570 -330 30 -17 244 -141
475 -275 231 -134 445 -258 475 -275 547 -315 2314 -1339 2485 -1440 105 -62
352 -206 550 -320 198 -115 405 -234 460 -266 55 -32 189 -109 297 -171 109
-62 198 -116 198 -119 0 -5 -323 -194 -785 -459 -198 -114 -1057 -611 -1375
-795 -69 -40 -255 -148 -415 -240 -159 -93 -364 -212 -455 -265 -91 -54 -336
-196 -545 -317 -209 -121 -513 -296 -675 -390 -162 -94 -470 -272 -685 -395
-214 -124 -729 -422 -1143 -662 -415 -240 -758 -434 -763 -431 -5 4 -9 -336
-9 -865 0 -506 -4 -870 -9 -868 -5 2 -176 99 -380 217 l-371 214 -3 876 c-2
709 -3 626 -5 -431 -1 -720 -5 -1308 -10 -1308 -4 0 -16 6 -27 14 -11 7 -40
24 -65 38 -25 14 -85 49 -135 78 -49 29 -133 77 -185 108 -52 30 -108 62 -125
72 -60 35 -231 134 -260 150 -16 10 -70 41 -120 70 -49 29 -108 62 -130 75
-22 12 -80 46 -130 75 -49 29 -130 76 -180 105 -49 28 -100 58 -112 66 l-23
14 0 437 0 438 -41 25 c-22 15 -55 34 -72 44 -18 10 -77 44 -132 76 -93 54
-154 90 -485 280 -69 40 -165 96 -215 125 -49 29 -103 60 -120 70 -16 9 -75
43 -130 75 -223 130 -320 185 -327 185 -5 0 -9 -393 -10 -874 l-3 -875 -110
65 c-60 35 -162 93 -225 130 -63 36 -158 91 -210 121 -52 30 -109 63 -126 73
-82 48 -73 -10 -76 485 l-3 440 -135 79 c-119 70 -327 190 -431 250 -126 72
-189 106 -199 106 -7 0 -10 -137 -10 -430 0 -236 -3 -430 -6 -430 -4 0 -23 10
-43 22 -20 13 -48 30 -63 38 -32 18 -176 100 -233 134 -107 62 -248 144 -317
184 l-78 44 0 873 c0 777 -2 874 -16 885 -8 8 -180 109 -382 226 l-367 212 -3
876 -2 876 22 0 c12 0 116 55 232 122 116 67 274 158 351 203 77 45 232 135
345 201 292 171 525 306 595 344 60 33 366 211 635 368 80 46 258 150 395 230
138 79 410 238 605 352 195 114 450 261 565 327 116 66 264 151 330 190 66 38
289 166 495 285 206 118 490 282 630 363 140 81 482 279 760 440 278 161 591
342 695 403 105 61 196 111 204 112 7 0 88 -43 180 -97z"/>
</g>
</svg>
