<?xml version="1.0" standalone="no"?>
<!DOCTYPE svg PUBLIC "-//W3C//DTD SVG 20010904//EN"
 "http://www.w3.org/TR/2001/REC-SVG-20010904/DTD/svg10.dtd">
<svg version="1.0" xmlns="http://www.w3.org/2000/svg"
 width="1920.000000pt" height="1080.000000pt" viewBox="0 0 1920.000000 1080.000000"
 preserveAspectRatio="xMidYMid meet">

<g transform="translate(0.000000,1080.000000) scale(0.100000,-0.100000)"
fill="#000000" stroke="none">
<path d="M0 5400 l0 -5400 9600 0 9600 0 0 5400 0 5400 -9600 0 -9600 0 0
-5400z m9788 4426 c97 -56 301 -174 452 -261 151 -86 291 -167 310 -180 19
-12 89 -53 155 -90 241 -137 400 -228 645 -370 74 -43 164 -95 200 -115 36
-20 119 -68 185 -106 486 -284 1432 -829 1667 -963 65 -36 118 -69 118 -73 0
-3 -53 -36 -117 -74 -141 -81 -199 -114 -318 -184 -49 -30 -119 -70 -155 -90
-36 -20 -126 -72 -200 -115 -74 -43 -164 -95 -200 -115 -36 -20 -126 -72 -200
-115 -74 -43 -160 -93 -190 -110 -135 -78 -449 -260 -605 -350 -93 -54 -174
-101 -180 -105 -5 -4 -46 -28 -90 -53 -78 -43 -697 -399 -1025 -589 -91 -53
-263 -153 -383 -222 -120 -69 -226 -132 -237 -139 -18 -12 -19 -46 -22 -850
-2 -460 -5 -837 -7 -837 -7 0 -96 45 -101 51 -3 3 -12 9 -20 13 -8 4 -24 12
-35 19 -65 39 -214 127 -263 154 -55 31 -57 33 -58 75 -1 24 -2 278 -3 565
l-1 522 -67 39 c-38 21 -147 84 -243 140 l-175 102 -3 -280 c-1 -154 -5 -280
-7 -280 -5 0 -134 73 -373 212 -57 33 -105 58 -108 55 -3 -3 -5 -127 -5 -276
0 -163 -3 -271 -9 -271 -5 0 -100 53 -212 118 -112 65 -210 121 -218 125 -37
19 -59 34 -55 39 3 2 5 254 5 559 1 522 0 555 -17 567 -19 14 -109 67 -178
106 -130 73 -215 122 -248 143 -22 14 -42 22 -45 18 -4 -4 -7 -126 -7 -271 0
-198 -3 -264 -12 -264 -6 0 -15 5 -18 10 -3 6 -26 19 -49 30 -24 11 -80 42
-125 70 -46 27 -84 50 -87 50 -5 0 -107 62 -114 69 -3 4 -22 14 -42 23 l-38
18 0 284 0 285 -85 51 c-47 27 -88 50 -90 50 -3 0 -28 15 -57 33 -100 64 -258
151 -263 145 -3 -2 -5 -129 -5 -281 l-1 -278 -29 21 c-15 11 -31 20 -35 20 -4
0 -19 8 -33 19 -15 10 -54 33 -87 50 -66 35 -97 53 -105 61 -3 3 -27 16 -55
30 -27 14 -54 29 -60 33 -5 5 -25 17 -43 28 l-33 19 -1 273 c-1 149 -3 403 -5
563 l-4 291 123 71 c258 147 845 485 1118 644 157 91 329 190 383 222 53 31
141 82 195 113 53 31 126 73 162 93 36 20 184 105 330 190 146 84 294 170 330
190 36 20 119 67 185 105 66 37 136 78 155 90 19 13 199 117 400 233 201 115
403 232 450 260 47 28 91 51 98 52 7 0 93 -47 190 -104z m-3580 -3604 c15 -11
52 -33 82 -49 30 -17 117 -67 193 -112 76 -44 142 -81 146 -81 18 0 21 -40 21
-301 l0 -269 -37 21 c-21 11 -99 56 -173 100 -74 43 -165 96 -202 116 l-68 37
-1 238 c-1 131 -1 249 -1 263 0 63 1 64 40 37z m1072 -1193 c3 -4 25 -16 49
-29 34 -17 41 -24 30 -32 -11 -8 -10 -9 4 -4 12 4 41 -7 75 -27 31 -18 65 -36
75 -40 11 -4 15 -12 11 -19 -5 -7 -2 -9 9 -5 8 3 21 -1 27 -9 7 -8 21 -14 31
-14 10 0 21 -10 25 -22 5 -15 8 -482 4 -548 0 -3 -6 2 -13 11 -7 9 -22 19 -35
23 -12 4 -22 13 -22 21 0 7 -7 15 -15 19 -8 3 -15 1 -15 -4 0 -11 -70 30 -106
62 -11 10 -27 18 -36 18 -8 0 -23 9 -32 19 -10 11 -31 23 -47 26 -25 6 -29 11
-24 28 5 17 4 18 -4 8 -8 -13 -18 -11 -63 12 l-53 27 0 274 0 275 60 -32 c33
-18 62 -35 65 -38z m-1517 -260 c18 -10 48 -26 67 -36 19 -10 37 -21 38 -26 2
-4 26 -17 53 -28 27 -12 49 -24 49 -28 0 -3 24 -17 53 -31 28 -14 58 -31 66
-38 7 -7 27 -16 43 -19 l29 -6 -1 -278 c-1 -161 -6 -279 -11 -279 -5 0 -9 4
-9 9 0 5 -8 11 -17 14 -20 6 -115 59 -178 98 -22 14 -48 28 -57 32 -10 3 -18
12 -18 18 0 7 8 18 18 25 16 13 16 13 0 14 -10 0 -18 -4 -18 -10 0 -20 -46 -8
-100 25 -30 20 -63 38 -72 41 -16 6 -18 26 -18 230 0 172 3 224 13 225 10 0
10 2 0 6 -8 3 -13 23 -13 49 l0 44 26 -16 c14 -10 40 -25 57 -35z m2430 -831
c22 -13 47 -29 55 -36 7 -7 38 -24 68 -39 30 -14 54 -30 54 -35 0 -4 8 -8 17
-8 9 0 24 -6 32 -14 18 -16 86 -55 143 -83 22 -10 39 -27 43 -41 3 -13 5 -136
4 -273 -1 -214 -3 -249 -16 -249 -8 0 -17 9 -20 21 -3 11 -9 16 -12 10 -4 -6
-40 10 -89 38 -45 26 -79 51 -75 54 3 4 -1 7 -10 7 -9 0 -40 14 -69 31 -29 16
-61 33 -70 36 -13 4 -16 12 -12 29 4 15 2 24 -6 24 -7 0 -10 -7 -6 -15 7 -19
-18 -20 -33 -1 -7 8 -23 17 -37 20 -18 5 -24 12 -20 22 3 9 6 130 6 270 0 140
2 254 6 254 3 0 24 -10 47 -22z m-458 -298 c46 -27 87 -50 93 -50 6 0 12 -4
14 -9 2 -5 26 -20 53 -35 28 -14 88 -48 135 -75 l85 -48 3 -283 2 -282 -34 22
c-20 11 -50 28 -68 37 -18 9 -40 21 -48 28 -8 7 -40 25 -70 41 -30 16 -57 31
-60 34 -3 3 -49 30 -102 60 l-98 55 0 278 c0 152 3 277 6 277 3 0 43 -22 89
-50z m-410 -335 c28 -15 52 -31 55 -34 6 -7 34 -23 93 -54 23 -11 44 -24 47
-28 3 -3 25 -17 50 -29 25 -12 48 -28 52 -34 11 -17 8 -536 -3 -536 -10 0 -60
29 -69 41 -3 3 -28 16 -57 30 -42 19 -51 28 -47 44 4 13 2 16 -3 8 -7 -10 -16
-10 -44 0 -18 6 -38 16 -44 20 -5 4 -19 14 -30 22 -18 13 -18 14 -2 15 9 0 17
5 17 10 0 13 -16 13 -41 0 -18 -10 -29 3 -11 13 4 2 1 2 -6 0 -17 -4 -103 43
-120 65 -10 13 -12 79 -11 280 l1 263 61 -34 c34 -19 85 -47 112 -62z m-620
-205 c17 -10 46 -27 65 -38 19 -11 109 -63 200 -115 l165 -95 5 -272 c3 -150
2 -274 -2 -277 -8 -4 -20 2 -301 162 l-176 100 -1 278 c0 152 3 277 8 276 4 0
21 -9 37 -19z m1443 -527 l-2 -258 -6 250 c-5 240 -4 265 6 265 2 0 3 -116 2
-257z m62 217 c8 -8 62 -38 100 -56 19 -9 37 -19 40 -23 3 -4 32 -20 65 -36
33 -17 62 -33 63 -38 2 -4 22 -16 45 -27 23 -11 52 -29 65 -39 23 -20 23 -20
21 -285 -1 -230 -6 -292 -21 -258 -1 4 -25 18 -53 32 -27 14 -52 28 -55 31 -3
3 -12 9 -20 12 -8 4 -28 16 -45 27 -16 11 -37 23 -45 27 -8 3 -17 9 -20 12 -3
3 -31 19 -62 36 -31 16 -54 33 -52 37 3 4 -1 5 -9 3 -7 -3 -22 4 -33 16 l-19
22 33 -6 c20 -4 32 -2 32 4 0 6 -18 9 -47 7 -30 -2 -48 1 -50 10 -3 7 5 12 19
13 13 0 17 3 10 6 -10 4 -13 59 -11 253 l1 249 21 -12 c12 -7 24 -14 27 -17z
m957 -1123 c13 -11 26 -18 29 -14 4 3 40 -16 80 -44 50 -33 74 -56 74 -69 0
-13 6 -20 18 -19 10 0 12 3 5 6 -7 2 -13 12 -13 20 0 12 3 13 13 4 15 -12 95
-57 165 -93 l42 -22 0 -243 c0 -164 3 -243 11 -243 17 0 -1 -21 -27 -30 -19
-8 -35 -4 -74 17 -28 15 -50 31 -50 35 0 4 -8 8 -18 8 -10 0 -28 7 -41 16 -18
13 -20 18 -10 25 8 5 21 8 29 8 11 0 11 -2 2 -6 -10 -4 -10 -8 -1 -19 6 -8 16
-14 21 -14 6 0 5 7 -2 15 -10 12 -10 15 1 15 9 0 7 4 -5 11 -13 8 -25 8 -43 0
-21 -10 -30 -9 -51 5 -14 9 -55 32 -91 51 -36 20 -67 39 -69 44 -2 5 -9 9 -17
9 -7 0 -18 7 -25 15 -11 13 -10 14 4 9 9 -3 16 -2 16 4 0 5 -7 12 -15 16 -13
5 -15 43 -15 260 0 239 1 255 18 249 9 -3 27 -15 39 -26z m424 -760 c-6 -8 -7
-17 -3 -22 4 -4 -4 -2 -18 5 -23 13 -24 14 -5 21 30 12 39 10 26 -4z"/>
<path d="M9525 5410 c-3 -6 1 -7 9 -4 18 7 21 14 7 14 -6 0 -13 -4 -16 -10z"/>
<path d="M7186 5061 c-3 -5 1 -12 10 -15 22 -8 25 -4 9 11 -8 7 -16 9 -19 4z"/>
<path d="M7418 4913 c7 -3 16 -2 19 1 4 3 -2 6 -13 5 -11 0 -14 -3 -6 -6z"/>
<path d="M7360 4900 c0 -5 5 -10 10 -10 6 0 10 5 10 10 0 6 -4 10 -10 10 -5 0
-10 -4 -10 -10z"/>
<path d="M7192 4700 c0 -14 2 -19 5 -12 2 6 2 18 0 25 -3 6 -5 1 -5 -13z"/>
<path d="M7408 4453 c6 -2 18 -2 25 0 6 3 1 5 -13 5 -14 0 -19 -2 -12 -5z"/>
<path d="M8316 3837 c3 -10 9 -15 12 -12 3 3 0 11 -7 18 -10 9 -11 8 -5 -6z"/>
<path d="M8368 3783 c7 -3 16 -2 19 1 4 3 -2 6 -13 5 -11 0 -14 -3 -6 -6z"/>
<path d="M8564 3675 c-3 -14 -4 -29 0 -32 3 -4 6 3 6 15 0 11 5 22 12 24 9 3
9 6 0 12 -7 4 -14 -3 -18 -19z"/>
<path d="M8580 3623 c0 -13 5 -23 10 -23 13 0 13 11 0 30 -8 12 -10 11 -10 -7z"/>
<path d="M8564 3445 c0 -88 2 -123 3 -77 2 46 2 118 0 160 -1 42 -3 5 -3 -83z"/>
<path d="M8166 3425 c21 -16 44 -19 44 -6 0 5 -10 11 -22 15 -37 9 -43 7 -22
-9z"/>
<path d="M8290 3356 c0 -2 7 -6 15 -10 8 -3 15 -1 15 4 0 6 -7 10 -15 10 -8 0
-15 -2 -15 -4z"/>
<path d="M8358 3323 c6 -2 18 -2 25 0 6 3 1 5 -13 5 -14 0 -19 -2 -12 -5z"/>
<path d="M8428 3273 c7 -3 16 -2 19 1 4 3 -2 6 -13 5 -11 0 -14 -3 -6 -6z"/>
<path d="M8498 3273 c7 -3 16 -2 19 1 4 3 -2 6 -13 5 -11 0 -14 -3 -6 -6z"/>
<path d="M8557 3265 c-4 -8 -2 -17 3 -20 6 -4 10 3 10 14 0 25 -6 27 -13 6z"/>
<path d="M8460 3261 c0 -5 7 -12 16 -15 24 -9 27 -7 10 9 -17 17 -26 19 -26 6z"/>
<path d="M8520 3241 c0 -5 5 -13 10 -16 6 -3 10 -2 10 4 0 5 -4 13 -10 16 -5
3 -10 2 -10 -4z"/>
<path d="M7167 3363 c-13 -13 -7 -25 7 -14 12 10 15 8 19 -11 4 -20 4 -20 6 5
1 26 -16 37 -32 20z"/>
<path d="M7220 3311 c0 -5 9 -7 20 -4 11 3 20 7 20 9 0 2 -9 4 -20 4 -11 0
-20 -4 -20 -9z"/>
<path d="M7277 3298 c-3 -9 6 -14 27 -15 17 0 24 1 16 4 -8 3 -20 10 -26 15
-7 5 -14 4 -17 -4z"/>
<path d="M7167 3283 c-11 -11 -8 -343 3 -343 6 0 10 65 10 175 0 96 -1 175 -3
175 -2 0 -7 -3 -10 -7z"/>
<path d="M7190 3075 c-3 -115 -4 -212 -2 -214 13 -21 16 45 12 219 l-5 205 -5
-210z"/>
<path d="M7420 3221 c0 -5 -10 -11 -22 -14 -13 -2 -4 -4 18 -3 34 0 39 2 28
13 -15 15 -24 17 -24 4z"/>
<path d="M7160 2920 c0 -5 5 -10 11 -10 5 0 7 5 4 10 -3 6 -8 10 -11 10 -2 0
-4 -4 -4 -10z"/>
<path d="M7160 2889 c0 -5 5 -7 10 -4 6 3 10 8 10 11 0 2 -4 4 -10 4 -5 0 -10
-5 -10 -11z"/>
<path d="M7235 2840 c3 -5 16 -10 28 -10 18 0 19 2 7 10 -20 13 -43 13 -35 0z"/>
<path d="M7500 2680 c0 -5 5 -10 10 -10 6 0 10 5 10 10 0 6 -4 10 -10 10 -5 0
-10 -4 -10 -10z"/>
<path d="M8208 2743 c7 -3 16 -2 19 1 4 3 -2 6 -13 5 -11 0 -14 -3 -6 -6z"/>
<path d="M8355 2659 c-11 -17 4 -24 25 -11 12 7 20 8 20 2 0 -5 5 -10 11 -10
8 0 8 5 -1 15 -14 17 -46 20 -55 4z"/>
<path d="M8480 2602 c0 -13 46 -35 62 -29 9 3 7 7 -7 12 -11 3 -28 11 -37 16
-10 5 -18 5 -18 1z"/>
<path d="M8218 2313 c7 -3 16 -2 19 1 4 3 -2 6 -13 5 -11 0 -14 -3 -6 -6z"/>
<path d="M8338 2213 c7 -3 16 -2 19 1 4 3 -2 6 -13 5 -11 0 -14 -3 -6 -6z"/>
<path d="M8555 2064 c9 -9 19 -13 23 -10 3 4 0 11 -8 16 -24 15 -33 11 -15 -6z"/>
<path d="M9158 1603 c6 -2 18 -2 25 0 6 3 1 5 -13 5 -14 0 -19 -2 -12 -5z"/>
<path d="M9280 1544 c0 -8 5 -12 10 -9 6 4 8 11 5 16 -9 14 -15 11 -15 -7z"/>
<path d="M9440 1470 c0 -5 5 -10 11 -10 5 0 7 5 4 10 -3 6 -8 10 -11 10 -2 0
-4 -4 -4 -10z"/>
<path d="M9232 1098 c36 -23 103 -35 93 -17 -4 6 -18 9 -31 6 -18 -3 -24 0
-22 12 2 12 -6 16 -35 17 l-38 1 33 -19z m35 6 c-3 -3 -12 -4 -19 -1 -8 3 -5
6 6 6 11 1 17 -2 13 -5z"/>
<path d="M9336 1106 c10 -8 21 -12 24 -10 5 6 -21 24 -34 24 -6 0 -1 -6 10
-14z"/>
<path d="M9325 1050 c-3 -5 1 -10 10 -10 9 0 13 5 10 10 -3 6 -8 10 -10 10 -2
0 -7 -4 -10 -10z"/>
<path d="M9545 940 c4 -6 11 -8 16 -5 14 9 11 15 -7 15 -8 0 -12 -5 -9 -10z"/>
</g>
</svg>
